HIERARCHY
ROOT pelvis
{
	OFFSET 0.000000 0.000000 0.000000
	CHANNELS 6 Xposition Yposition Zposition Zrotation Xrotation Yrotation
	JOINT lfemur
	{
		OFFSET 11.446000 0.000000 0.000000
		CHANNELS 3 Zrotation Xrotation Yrotation
		JOINT ltibia
		{
			OFFSET 0.000000 -42.030400 0.000000
			CHANNELS 3 Zrotation Xrotation Yrotation
			JOINT lfoot
			{
				OFFSET 0.000000 -39.930200 0.000000
				CHANNELS 3 Zrotation Xrotation Yrotation
				JOINT ltoes
				{
					OFFSET 0.000000 0.000000 11.775800
					CHANNELS 3 Zrotation Xrotation Yrotation
					End Site
					{
					    OFFSET 0.000000 0.000000 5.000000
					}
				}
			}
		}
	}
	JOINT rfemur
	{
		OFFSET -11.446000 0.000000 0.000000
		CHANNELS 3 Zrotation Xrotation Yrotation
		JOINT rtibia
		{
			OFFSET 0.000000 -42.030400 0.000000
			CHANNELS 3 Zrotation Xrotation Yrotation
			JOINT rfoot
			{
				OFFSET 0.000000 -39.930200 0.000000
				CHANNELS 3 Zrotation Xrotation Yrotation
				JOINT rtoes
				{
					OFFSET 0.000000 0.000000 11.775800
					CHANNELS 3 Zrotation Xrotation Yrotation
					End Site
					{
					    OFFSET 0.000000 0.000000 5.000000
					}
				}
			}
		}
	}
	JOINT thorax
	{
		OFFSET 0.000000 11.255600 -5.000000
		CHANNELS 3 Zrotation Xrotation Yrotation
		JOINT head
		{
			OFFSET 0.000000 43.799300 0.000000
			CHANNELS 3 Zrotation Xrotation Yrotation
			End Site
			{
			    OFFSET 0.000000 5.000000 0.000000
			}
		}
		JOINT lclavicle
		{
			OFFSET 0.000000 39.863000 0.000000
			CHANNELS 3 Zrotation Xrotation Yrotation
			JOINT lhumerus
			{
				OFFSET 17.380600 4.958300 0.000000
				CHANNELS 3 Zrotation Xrotation Yrotation
				JOINT lradius
				{
					OFFSET 0.000000 -27.561300 0.000000
					CHANNELS 3 Zrotation Xrotation Yrotation
					JOINT lhand
					{
						OFFSET 0.000000 -26.933000 0.000000
						CHANNELS 3 Zrotation Xrotation Yrotation
						End Site
						{
						    OFFSET 0.000000 -5.000000 0.000000
						}
					}
				}
			}
		}
		JOINT rclavicle
		{
			OFFSET 0.000000 39.863000 0.000000
			CHANNELS 3 Zrotation Xrotation Yrotation
			JOINT rhumerus
			{
				OFFSET -17.380600 4.958300 0.000000
				CHANNELS 3 Zrotation Xrotation Yrotation
				JOINT rradius
				{
					OFFSET 0.000000 -27.561300 0.000000
					CHANNELS 3 Zrotation Xrotation Yrotation
					JOINT rhand
					{
						OFFSET 0.000000 -26.933000 0.000000
						CHANNELS 3 Zrotation Xrotation Yrotation
						End Site
						{
						    OFFSET 0.000000 -5.000000 0.000000
						}
					}
				}
			}
		}
	}
}
MOTION
Frames:	14
Frame Time:	0.0333333
3.60285 85.706 -155.316 -6.93236 -4.3291 0.0050192 5.0054 -28.669 -3.00761 0.0695504 19.5979 -0.15014 0.771197 26.857 -0.125174 -1.64002e-016 -5 3.99088e-016 7.5277 18.7104 4.89626 -1.08844 61.2791 1.0267 3.86467 11.659 -16.4114 -9.87531e-016 -5 -2.20746e-015 8.15221 9.24743 7.53338 4.14585 -8.87529 -13.4504 -2.98177e-016 1.59028e-015 -0 10.818 38.2817 -37.305 112.95 -48.3149 86.4152 -1.2461 4.29976 32.3288 -2.98177e-016 1.59028e-015 -0 -17.1005 -5.37846 42.279 -138.809 -33.4052 -106.645 0.196944 1.77207 -12.719 
3.70708 83.4877 -143.012 -5.55894 -6.87598 -0.146654 3.66253 -27.4374 -1.23056 0.178826 31.6545 -0.370756 1.67875 15.7572 -3.60528 1.98785e-016 -5 -0 3.392 14.3042 2.69591 -3.14191 76.1751 3.15418 2.62136 5.74765 -15.4496 1.99192e-016 -5 4.67681e-018 5.61488 11.5632 5.45137 4.57271 -9.80929 -11.4093 0 0 -7.95139e-016 12.221 34.281 -37.7033 116.701 -46.9582 89.5351 -1.45313 4.60972 34.9946 0 0 -7.95139e-016 -14.2317 -1.88236 45.1939 -136.602 -35.3 -105.08 0.125757 1.42144 -10.1699 
4.09378 81.6395 -131.672 -2.73529 -8.89014 -0.519331 -0.262959 -25.5959 -0.681348 0.473091 47.4769 -0.763025 0.797 1.7768 1.62073 -6.46039e-017 -5 -9.9772e-017 -2.8834 5.23924 0.231832 -41.2252 88.5715 41.2928 1.25142 0.276976 -13.1689 7.88617e-016 -5 -7.4829e-017 1.40799 14.536 4.33126 4.84082 -10.2784 -10.3304 -0 -7.95139e-016 -0 14.8364 24.1569 -39.0795 116.293 -47.1165 89.1969 -1.76334 5.0222 38.6896 -0 -7.95139e-016 -0 -10.231 2.08275 44.7758 -131.162 -39.3807 -101.055 0.100867 1.27427 -9.10309 
4.53267 80.2716 -121.321 0.713298 -8.88101 -1.06153 -4.27562 -21.6533 -0.826512 0.739528 55.5326 -1.05087 1.37552 -8.42474 5.42787 -1.73914e-017 -5 -1.99544e-016 -8.47822 -8.68899 -2.37397 -169.38 84.4253 169.468 0.0205263 -4.91356 -11.1769 2.73397e-016 -5 -5.98632e-015 -3.33538 15.4695 3.60081 5.48408 -10.2784 -8.45342 -1.98785e-016 -7.95139e-016 -0 16.7193 11.2871 -37.9555 113.215 -48.2268 86.6347 -1.7605 5.01864 38.6577 -1.98785e-016 -7.95139e-016 -0 -6.30372 6.55498 42.9916 -124.018 -43.6441 -95.484 0.0274067 0.66789 -4.74853 
4.66559 79.6835 -110.723 0.118724 -9.023 -2.83905 -3.71848 -15.5127 0.831704 0.937379 59.976 -0.97414 2.39473 -16.3475 7.87659 -1.29219e-016 -5 7.98176e-016 -7.16253 -21.4727 -4.158 -145.823 88.3021 145.796 -0.730753 -6.32207 -11.3019 -1.65984e-015 -5 -7.98176e-016 -2.11212 15.6252 2.60962 3.67354 -8.95957 -6.13759 -6.21202e-017 -7.95139e-016 9.93923e-017 13.8573 3.31723 -34.1677 116.989 -46.8468 89.7709 -1.51131 4.69135 35.713 -6.21202e-017 -7.95139e-016 9.93923e-017 -6.56453 11.4525 43.8962 -122.564 -44.3802 -94.3181 0.0105186 0.416489 -2.95491 
4.8819 79.952 -100.14 1.39604 -7.58971 -3.02743 -5.55476 -8.88668 1.27283 0.910754 59.3166 -0.856859 2.88759 -18.63 8.99767 1.98785e-016 -5 -0 -6.44424 -31.4601 -5.84067 -3.5 77.8011 3.41863 -0.883632 -3.71449 -13.1279 -4.49257e-015 -5 3.1927e-015 -3.32559 13.9122 -0.851267 2.93792 -8.50913 -3.24243 1.98785e-016 -7.95139e-016 7.95139e-016 11.9314 0.0756563 -30.7138 126.431 -42.3291 97.3959 -1.91042 5.19946 40.3412 1.98785e-016 -7.95139e-016 7.95139e-016 -6.95898 16.4006 46.4869 -127.915 -41.4582 -98.558 0.0591496 0.977834 -6.96859 
4.97928 81.5379 -88.9009 1.79707 -6.59312 -3.77138 -6.05412 -0.82622 0.983337 0.759123 55.8261 -0.619028 2.29022 -13.3015 3.59426 4.67135e-016 -5 7.98176e-016 -3.07129 -34.0923 -3.59866 -0.641357 53.2904 0.668744 0.0392735 3.24139 -14.3409 2.78262e-016 -5 3.1927e-015 -3.30762 11.9762 -3.76798 2.36499 -7.84294 -0.674404 -9.93923e-017 0 -0 11.1588 -1.46977 -29.5026 132.683 -38.3184 102.203 -1.97179 5.2702 41.0178 -9.93923e-017 0 -0 -8.75016 18.2658 48.944 -130.947 -39.5253 -100.892 0.142305 1.51 -10.8061 
4.83279 82.8978 -77.0579 1.78595 -6.48576 -5.28542 -5.71327 8.05947 0.949147 0.578432 50.3284 -0.377153 7.55471 -5.77732 -3.80512 -1.72941e-015 -5 -1.59635e-015 -0.104566 -29.0198 0.442512 -0.0760352 20.9508 0.178134 0.456223 10.5315 -10.699 1.19307e-016 -5 -3.1927e-015 -2.95175 10.3442 -5.22529 2.45074 -7.25368 0.903025 4.41391e-032 -7.95139e-016 3.18055e-015 12.8837 -2.10243 -30.9947 136.363 -35.4958 104.908 -1.70291 4.94516 37.9993 4.41391e-032 -7.95139e-016 3.18055e-015 -9.43796 21.6486 49.0568 -134.588 -36.9018 -103.617 0.126228 1.42384 -10.1857 
5.06435 83.146 -65.532 3.66637 -6.24428 -4.89944 -6.64632 11.6412 -1.30728 0.591366 50.9232 -0.719533 5.26791 3.37026 -12.1678 -6.50024e-015 -5 -1.59635e-015 -1.54645 -25.1059 2.12759 0.000618438 4.30504e-005 0.0156651 -0.144303 11.2377 -6.16622 -1.39131e-016 -5 -1.59635e-015 -4.41272 8.05244 -6.43347 2.26895 -6.9914 0.324187 -9.93923e-017 -7.95139e-016 4.77083e-015 17.0806 -2.23462 -34.7055 137.492 -34.5534 105.716 -1.39268 4.52129 34.2404 -9.93923e-017 -7.95139e-016 4.77083e-015 -9.23269 24.7591 47.3408 -136.555 -35.3361 -105.047 0.122334 1.40216 -10.0299 
5.678 81.8984 -55.0349 6.24756 -7.63042 -4.71303 -8.95805 12.1443 -1.52207 0.899367 58.0607 -0.887923 2.24762 1.0199 -6.83108 1.72941e-015 -5 1.59635e-015 -3.58607 -23.4039 3.05348 -5.07525e-008 0.0884844 -0.0170274 -0.689106 14.4621 -1.54924 1.39131e-016 -5 1.59635e-015 -6.51474 8.95804 -5.56909 1.10425 -7.87139 -1.05935 4.96962e-017 7.95139e-016 -0 21.4161 -4.52709 -37.8655 135.615 -36.0999 104.366 -1.2041 4.23204 31.7703 4.96962e-017 7.95139e-016 -0 -8.9882 26.0574 44.3361 -137.898 -34.2019 -106.005 0.127057 1.42792 -10.216 
5.74678 80.5155 -44.6929 6.91063 -10.6554 -3.87695 -7.48394 11.8295 0.549525 1.64147 67.7235 -1.70326 1.17944 -2.59876 0.133599 1.65984e-015 -5 7.98176e-016 -3.20382 -26.0919 5.59531 -0.0727688 20.8713 0.156786 -1.13738 17.5666 1.55916 -9.93473e-018 -5 -3.99088e-016 -6.71944 12.4285 -4.84265 0.13185 -10.1324 -2.3098 -4.96962e-017 0 -3.18055e-015 22.9572 -5.55341 -40.4109 132.31 -38.5855 101.921 -0.938365 3.77063 27.9617 -4.96962e-017 0 -3.18055e-015 -9.20876 24.5796 42.3341 -137.881 -34.2169 -105.993 0.106072 1.30624 -9.33704 
5.12643 78.8204 -35.5188 2.85853 -11.2053 -1.34402 0.65947 3.9589 0.260619 4.74431 80.1546 -4.88408 0.951129 -7.07135 1.96722 1.74558e-015 -5 -4.9886e-016 2.53314 -30.5984 7.4563 -0.320777 40.7897 0.582667 -0.738775 14.7118 0.316802 -2.58438e-016 -5 1.59635e-015 -0.624945 14.498 -5.75646 -1.65261 -12.5385 -4.39498 4.96962e-016 -3.97569e-016 -7.95139e-016 19.3804 -6.12646 -42.6051 125.715 -42.7326 96.8308 -0.829921 3.55925 26.2588 4.96962e-016 -3.97569e-016 -7.95139e-016 -9.56717 20.0272 40.5903 -135.612 -36.1 -104.365 0.0864351 1.18145 -8.43758 
4.39061 78.618 -26.6729 -0.834005 -12.4224 -1.39578 7.12036 -4.41793 1.9871 15.2014 86.5678 -15.4581 0.867319 -10.7908 -0.292591 5.04418e-016 -5 -1.99544e-016 7.25772 -28.1697 7.12565 -0.585209 51.3181 0.88211 -0.521708 5.28479 -4.05904 9.93923e-017 -5 -0 3.74999 16.9639 -5.53353 -1.77276 -14.3126 -5.14671 -9.93923e-016 -7.95139e-016 7.95139e-016 14.8809 -5.146 -40.6141 111.089 -48.914 84.8501 -0.817544 3.53456 26.0607 -9.93923e-016 -7.95139e-016 7.95139e-016 -12.1054 11.1755 41.1094 -128.751 -40.9472 -99.2057 0.161908 1.60917 -11.5241 
4.62799 78.1321 -18.325 0.697107 -12.0992 -0.180711 5.57658 -15.4074 2.74773 21.6086 87.5429 -21.828 0.870071 -9.84615 -1.33082 3.62787e-016 -5 -3.99088e-016 6.25032 -26.03 7.04691 -0.916805 59.5728 1.10021 -1.11145 -5.33677 -8.35133 -1.73937e-016 -5 -0 1.66987 16.4599 -5.25302 -0.260536 -13.1766 -5.22863 -1.98785e-016 -7.95139e-016 -7.95139e-016 11.7947 -2.40308 -37.0777 90.3895 -52.7546 67.0675 -0.756194 3.40623 25.0478 -1.98785e-016 -7.95139e-016 -7.95139e-016 -12.9886 0.733875 41.3631 -115.306 -47.4898 -88.3775 0.134223 1.46705 -10.4892 
